<?xml version="1.0" standalone="no"?>
<!DOCTYPE svg PUBLIC "-//W3C//DTD SVG 1.1//EN" "http://www.w3.org/Graphics/SVG/1.1/DTD/svg11.dtd" >
<!--
2013-9-30: Created.
-->
<svg>
<metadata>
Created by iconfont
</metadata>
<defs>

<font id="iconfont" horiz-adv-x="1024" >
  <font-face
    font-family="iconfont"
    font-weight="500"
    font-stretch="normal"
    units-per-em="1024"
    ascent="896"
    descent="-128"
  />
    <missing-glyph />
    
    <glyph glyph-name="line-border" unicode="&#58965;" d="M725.333333 768H298.666667c-46.933333 0-85.333333-38.4-85.333334-85.333333v-682.666667l298.666667 128 298.666667-128V682.666667c0 46.933333-38.4 85.333333-85.333334 85.333333z m0-640l-213.333333 93.013333L298.666667 128V682.666667h426.666666v-554.666667z"  horiz-adv-x="1024" />

    
    <glyph glyph-name="line-chat" unicode="&#58966;" d="M170.666667 725.333333h682.666666v-512H220.586667L170.666667 163.413333V725.333333m0 85.333334c-46.933333 0-84.906667-38.4-84.906667-85.333334L85.333333-42.666667l170.666667 170.666667h597.333333c46.933333 0 85.333333 38.4 85.333334 85.333333V725.333333c0 46.933333-38.4 85.333333-85.333334 85.333334H170.666667z m85.333333-426.666667h341.333333v-85.333333H256v85.333333z m0 128h512v-85.333333H256V512z m0 128h512v-85.333333H256V640z"  horiz-adv-x="1024" />

    
    <glyph glyph-name="line-circle" unicode="&#58967;" d="M512 810.666667C276.48 810.666667 85.333333 619.52 85.333333 384s191.146667-426.666667 426.666667-426.666667 426.666667 191.146667 426.666667 426.666667S747.52 810.666667 512 810.666667zM301.653333 116.053333c18.346667 38.4 130.133333 75.946667 210.346667 75.946667s192.426667-37.546667 210.346667-75.946667C664.32 69.973333 591.36 42.666667 512 42.666667s-152.32 27.306667-210.346667 73.386666z m481.706667 61.866667c-61.013333 74.24-209.066667 99.413333-271.36 99.413333s-210.346667-25.173333-271.36-99.413333A339.2 339.2 0 0 0 170.666667 384c0 188.16 153.173333 341.333333 341.333333 341.333333s341.333333-153.173333 341.333333-341.333333c0-77.653333-26.453333-148.906667-69.973333-206.08zM512 640c-82.773333 0-149.333333-66.56-149.333333-149.333333S429.226667 341.333333 512 341.333333s149.333333 66.56 149.333333 149.333334S594.773333 640 512 640z m0-213.333333c-35.413333 0-64 28.586667-64 64S476.586667 554.666667 512 554.666667s64-28.586667 64-64S547.413333 426.666667 512 426.666667z"  horiz-adv-x="1024" />

    
    <glyph glyph-name="line-book" unicode="&#58968;" d="M768 810.666667H256c-46.933333 0-85.333333-38.4-85.333333-85.333334v-682.666666c0-46.933333 38.4-85.333333 85.333333-85.333334h512c46.933333 0 85.333333 38.4 85.333333 85.333334V725.333333c0 46.933333-38.4 85.333333-85.333333 85.333334zM384 725.333333h85.333333v-213.333333l-42.666666 32L384 512V725.333333z m384-682.666666H256V725.333333h42.666667v-384l128 96L554.666667 341.333333V725.333333h213.333333v-682.666666z"  horiz-adv-x="1024" />

    
    <glyph glyph-name="line-reader" unicode="&#58969;" d="M896 725.333333H128c-46.933333 0-85.333333-38.4-85.333333-85.333333v-554.666667c0-46.933333 38.4-85.333333 85.333333-85.333333h768c46.933333 0 85.333333 38.4 85.333333 85.333333V640c0 46.933333-38.4 85.333333-85.333333 85.333333zM128 85.333333V640h341.333333v-554.666667H128z m768 0h-341.333333V640h341.333333v-554.666667z m-298.666667 405.333334h256V426.666667h-256z m0-106.666667h256v-64h-256z m0-106.666667h256V213.333333h-256z"  horiz-adv-x="1024" />

    
    <glyph glyph-name="line-thumb" unicode="&#58970;" d="M896 554.666667h-269.226667l40.533334 194.986666 1.28 13.653334c0 17.493333-7.253333 33.706667-18.773334 45.226666L604.586667 853.333333 323.84 572.16C308.053333 556.8 298.666667 535.466667 298.666667 512v-426.666667c0-46.933333 38.4-85.333333 85.333333-85.333333h384c35.413333 0 65.706667 21.333333 78.506667 52.053333l128.853333 300.8c3.84 9.813333 5.973333 20.053333 5.973333 31.146667v85.333333c0 46.933333-38.4 85.333333-85.333333 85.333334z m0-170.666667l-128-298.666667H384V512l185.173333 185.173333L521.813333 469.333333H896v-85.333333zM42.666667 512h170.666666v-512H42.666667z"  horiz-adv-x="1024" />

    
    <glyph glyph-name="line-mail" unicode="&#58971;" d="M853.333333 725.333333H170.666667c-46.933333 0-84.906667-38.4-84.906667-85.333333L85.333333 128c0-46.933333 38.4-85.333333 85.333334-85.333333h682.666666c46.933333 0 85.333333 38.4 85.333334 85.333333V640c0 46.933333-38.4 85.333333-85.333334 85.333333z m0-597.333333H170.666667V554.666667l341.333333-213.333334 341.333333 213.333334v-426.666667z m-341.333333 298.666667L170.666667 640h682.666666l-341.333333-213.333333z"  horiz-adv-x="1024" />

    
    <glyph glyph-name="line-insert" unicode="&#58972;" d="M810.666667 768h-42.666667V853.333333h-85.333333v-85.333333H341.333333V853.333333H256v-85.333333H213.333333c-47.36 0-84.906667-38.4-84.906666-85.333333L128 85.333333a85.333333 85.333333 0 0 1 85.333333-85.333333h597.333334c46.933333 0 85.333333 38.4 85.333333 85.333333V682.666667c0 46.933333-38.4 85.333333-85.333333 85.333333z m0-682.666667H213.333333V512h597.333334v-426.666667z m0 512H213.333333V682.666667h597.333334v-85.333334z m-85.333334-213.333333h-213.333333v-213.333333h213.333333v213.333333z"  horiz-adv-x="1024" />

    
    <glyph glyph-name="line-stars" unicode="&#58973;" d="M511.573333 810.666667C276.053333 810.666667 85.333333 619.52 85.333333 384s190.72-426.666667 426.24-426.666667C747.52-42.666667 938.666667 148.48 938.666667 384S747.52 810.666667 511.573333 810.666667z m319.146667-305.493334l-213.76 18.346667-85.333333 200.96c136.96-8.106667 252.16-96.853333 299.093333-219.306667z m-216.32-267.093333L512 299.52l-101.973333-61.44 26.88 116.053333-90.026667 78.08 118.613333 10.24L512 552.106667l46.506667-109.226667 118.613333-10.24-90.026667-78.08 27.306667-116.48z m-122.026667 486.4l-85.333333-201.386667-214.186667-18.346666c46.933333 122.88 162.133333 212.053333 299.52 219.733333zM170.666667 384c0 27.306667 3.413333 53.76 9.813333 79.36l161.706667-139.946667-47.36-202.666666A340.565333 340.565333 0 0 0 170.666667 384z m163.84-290.986667L512 200.106667l177.493333-106.666667A338.090667 338.090667 0 0 0 511.573333 42.666667c-64.853333 0-125.44 18.773333-177.066666 50.346666z m394.666666 27.733334l-47.36 202.666666 161.706667 139.946667c5.973333-25.173333 9.813333-52.053333 9.813333-79.36 0-105.813333-48.64-200.533333-124.16-263.253333z"  horiz-adv-x="1024" />

    
    <glyph glyph-name="line-lock" unicode="&#58974;" d="M768 554.666667h-42.666667V640c0 117.76-95.573333 213.333333-213.333333 213.333333S298.666667 757.76 298.666667 640v-85.333333H256c-46.933333 0-85.333333-38.4-85.333333-85.333334v-426.666666c0-46.933333 38.4-85.333333 85.333333-85.333334h512c46.933333 0 85.333333 38.4 85.333333 85.333334V469.333333c0 46.933333-38.4 85.333333-85.333333 85.333334zM384 640c0 70.826667 57.173333 128 128 128s128-57.173333 128-128v-85.333333H384V640z m384-597.333333H256V469.333333h512v-426.666666z m-256 128c46.933333 0 85.333333 38.4 85.333333 85.333333s-38.4 85.333333-85.333333 85.333333-85.333333-38.4-85.333333-85.333333 38.4-85.333333 85.333333-85.333333z"  horiz-adv-x="1024" />

    
    <glyph glyph-name="sharp-up" unicode="&#58975;" d="M604.586667 853.333333L298.666667 546.986667V0h525.226666L981.333333 366.933333V554.666667h-354.56l47.786667 229.546666zM42.666667 512h170.666666v-512H42.666667z"  horiz-adv-x="1024" />

    
    <glyph glyph-name="line-volume" unicode="&#58976;" d="M682.666667 555.946667v-343.466667c63.146667 31.146667 106.666667 96 106.666666 171.52A192 192 0 0 1 682.666667 555.946667zM213.333333 512v-256h170.666667l213.333333-213.333333V725.333333L384 512H213.333333z m298.666667 7.253333v-270.506666L419.413333 341.333333H298.666667v85.333334h120.746666L512 519.253333z"  horiz-adv-x="1024" />

    
    <glyph glyph-name="line-textsm" unicode="&#58977;" d="M853.333333 810.666667H170.666667c-46.933333 0-85.333333-38.4-85.333334-85.333334v-768l170.666667 170.666667h597.333333c46.933333 0 85.333333 38.4 85.333334 85.333333V725.333333c0 46.933333-38.4 85.333333-85.333334 85.333334z m0-597.333334H256l-85.333333-85.333333V725.333333h682.666666v-512zM298.666667 512h85.333333v-85.333333H298.666667z m170.666666 0h85.333334v-85.333333h-85.333334z m170.666667 0h85.333333v-85.333333h-85.333333z"  horiz-adv-x="1024" />

    
    <glyph glyph-name="line-zoom" unicode="&#58978;" d="M661.333333 298.666667h-33.706666l-11.946667 11.52A276.096 276.096 0 0 1 682.666667 490.666667 277.333333 277.333333 0 1 1 405.333333 213.333333c68.693333 0 131.84 25.173333 180.48 66.986667l11.52-11.946667v-33.706666l213.333334-212.906667L874.24 85.333333l-212.906667 213.333334z m-256 0C299.093333 298.666667 213.333333 384.426667 213.333333 490.666667S299.093333 682.666667 405.333333 682.666667 597.333333 596.906667 597.333333 490.666667 511.573333 298.666667 405.333333 298.666667z m21.333334 298.666666H384v-85.333333H298.666667v-42.666667h85.333333v-85.333333h42.666667v85.333333h85.333333V512h-85.333333z"  horiz-adv-x="1024" />

    
    <glyph glyph-name="line-del" unicode="&#58979;" d="M682.666667 512v-426.666667H341.333333V512h341.333334m-64 256h-213.333334l-42.666666-42.666667H213.333333v-85.333333h597.333334V725.333333h-149.333334l-42.666666 42.666667zM768 597.333333H256v-512c0-46.933333 38.4-85.333333 85.333333-85.333333h341.333334c46.933333 0 85.333333 38.4 85.333333 85.333333V597.333333z"  horiz-adv-x="1024" />

    
    <glyph glyph-name="line-border1" unicode="&#58980;" d="M597.272611 757.243334l-426.623294-426.623294V170.636305h159.983735l426.623294 426.623294L597.272611 757.243334zM295.223319 255.960964H255.973976v39.249343l341.298635 341.298635 39.249343-39.249343-341.298635-341.298635zM883.53684 723.540093a42.49168 42.49168 0 0 1 0 60.153885L783.70699 883.523828a42.49168 42.49168 0 0 1-60.153885 0L639.93494 799.905663 799.918675 639.921928l83.618165 83.618165zM0 42.649317h1023.895904v-170.649317H0v170.649317z"  horiz-adv-x="1024" />

    
    <glyph glyph-name="line-date" unicode="&#58981;" d="M298.666667 426.666667h85.333333v-85.333334H298.666667v85.333334z m597.333333 213.333333v-597.333333c0-46.933333-38.4-85.333333-85.333333-85.333334H213.333333a85.333333 85.333333 0 0 0-85.333333 85.333334l0.426667 597.333333c0 46.933333 37.546667 85.333333 84.906666 85.333333h42.666667V810.666667h85.333333v-85.333334h341.333334V810.666667h85.333333v-85.333334h42.666667c46.933333 0 85.333333-38.4 85.333333-85.333333zM213.333333 554.666667h597.333334V640H213.333333v-85.333333z m597.333334-512V469.333333H213.333333v-426.666666h597.333334z m-170.666667 298.666666h85.333333v85.333334h-85.333333v-85.333334z m-170.666667 0h85.333334v85.333334h-85.333334v-85.333334z"  horiz-adv-x="1024" />

    
    <glyph glyph-name="line-backup" unicode="&#58982;" d="M469.333333 413.866667V85.333333h42.666667v328.533334zM789.333333 422.4C768 571.733333 644.266667 682.666667 494.933333 682.666667c-149.333333 0-277.333333-110.933333-294.4-256-64-8.533333-115.2-64-115.2-128 0-68.266667 55.466667-128 128-128h128v42.666666H213.333333c-46.933333 0-85.333333 38.4-85.333333 85.333334 0 42.666667 34.133333 81.066667 76.8 85.333333l34.133333 4.266667 4.266667 34.133333c17.066667 128 128 221.866667 251.733333 221.866667 128 0 234.666667-93.866667 251.733334-221.866667l4.266666-29.866667 29.866667-4.266666c42.666667-8.533333 72.533333-42.666667 72.533333-85.333334 0-46.933333-38.4-85.333333-85.333333-85.333333h-85.333333v-42.666667h85.333333c68.266667 0 128 55.466667 128 128 0 59.733333-46.933333 110.933333-106.666667 119.466667zM489.728 471.552l30.165333-30.165333-171.946666-171.946667-30.208 30.122667zM663.594667 299.52l-30.165334-30.165333-171.946666 171.946666 30.122666 30.208z"  horiz-adv-x="1024" />

    
    <glyph glyph-name="line-speaker" unicode="&#58983;" d="M853.333333 810.666667H170.666667c-46.933333 0-84.906667-38.4-84.906667-85.333334L85.333333-42.666667l170.666667 170.666667h597.333333c46.933333 0 85.333333 38.4 85.333334 85.333333V725.333333c0 46.933333-38.4 85.333333-85.333334 85.333334z m0-597.333334H220.586667l-25.173334-25.173333-24.746666-24.746667V725.333333h682.666666v-512zM256 384h85.333333v-85.333333H256z m0 128h85.333333v-85.333333H256z m0 128h85.333333v-85.333333H256z m170.666667-256h213.333333v-85.333333h-213.333333z m0 128h341.333333v-85.333333h-341.333333z m0 128h341.333333v-85.333333h-341.333333z"  horiz-adv-x="1024" />

    
    <glyph glyph-name="line-reply" unicode="&#58984;" d="M426.666667 512V682.666667l-298.666667-298.666667 298.666667-298.666667v174.933334c213.333333 0 362.666667-68.266667 469.333333-217.6-42.666667 213.333333-170.666667 426.666667-469.333333 469.333333z"  horiz-adv-x="1024" />

    
    <glyph glyph-name="line-out" unicode="&#58985;" d="M622.933333 230.4L682.666667 170.666667l213.333333 213.333333-213.333333 213.333333-59.733334-59.733333 110.933334-110.933333H298.666667v-85.333334h435.2l-110.933334-110.933333zM128 682.666667v-597.333334c0-46.933333 38.4-85.333333 85.333333-85.333333h426.666667v85.333333H213.333333V682.666667h426.666667V768H213.333333c-46.933333 0-85.333333-38.4-85.333333-85.333333z"  horiz-adv-x="1024" />

    
    <glyph glyph-name="line-vertical" unicode="&#58986;" d="M682.666667 341.333333h-128V768h-85.333334v-426.666667H341.333333l170.666667-170.666666 170.666667 170.666666zM170.666667 85.333333v-85.333333h682.666666v85.333333H170.666667z"  horiz-adv-x="1024" />

    
    <glyph glyph-name="line-error" unicode="&#58987;" d="M469.333333 256h85.333334v-85.333333h-85.333334v85.333333z m0 341.333333h85.333334v-256h-85.333334V597.333333z m42.24 213.333334C276.053333 810.666667 85.333333 619.52 85.333333 384s190.72-426.666667 426.24-426.666667C747.52-42.666667 938.666667 148.48 938.666667 384S747.52 810.666667 511.573333 810.666667zM512 42.666667c-188.586667 0-341.333333 152.746667-341.333333 341.333333s152.746667 341.333333 341.333333 341.333333 341.333333-152.746667 341.333333-341.333333-152.746667-341.333333-341.333333-341.333333z"  horiz-adv-x="1024" />

    
    <glyph glyph-name="line-search" unicode="&#58988;" d="M661.333333 298.666667h-33.706666l-11.946667 11.52A276.096 276.096 0 0 1 682.666667 490.666667 277.333333 277.333333 0 1 1 405.333333 213.333333c68.693333 0 131.84 25.173333 180.48 66.986667l11.52-11.946667v-33.706666l213.333334-212.906667L874.24 85.333333l-212.906667 213.333334z m-256 0C299.093333 298.666667 213.333333 384.426667 213.333333 490.666667S299.093333 682.666667 405.333333 682.666667 597.333333 596.906667 597.333333 490.666667 511.573333 298.666667 405.333333 298.666667z"  horiz-adv-x="1024" />

    
    <glyph glyph-name="line-noti" unicode="&#58989;" d="M512-42.666667c46.933333 0 85.333333 38.4 85.333333 85.333334h-170.666666c0-46.933333 38.4-85.333333 85.333333-85.333334z m256 256v213.333334c0 130.986667-69.546667 240.64-192 269.653333V725.333333c0 35.413333-28.586667 64-64 64s-64-28.586667-64-64v-29.013333C325.973333 667.306667 256 558.08 256 426.666667v-213.333334l-85.333333-85.333333v-42.666667h682.666666v42.666667l-85.333333 85.333333z m-85.333333-42.666666H341.333333v256c0 105.813333 64.426667 192 170.666667 192s170.666667-86.186667 170.666667-192v-256z"  horiz-adv-x="1024" />

    
    <glyph glyph-name="outline-chevron_right-px" unicode="&#58990;" d="M426.666667 640L366.506667 579.84 561.92 384l-195.413333-195.84L426.666667 128l256 256-256 256z"  horiz-adv-x="1024" />

    
    <glyph glyph-name="outline-expand_more-px" unicode="&#58991;" d="M707.84 529.493333L512 334.08 316.16 529.493333 256 469.333333l256-256 256 256-60.16 60.16z"  horiz-adv-x="1024" />

    
    <glyph glyph-name="icon_jiantou" unicode="&#58914;" d="M380.342857-128l-102.4 102.4L687.542857 384 277.942857 793.6 380.342857 896l512-512z"  horiz-adv-x="1024" />

    
    <glyph glyph-name="icon_biaoqian_close" unicode="&#58915;" d="M583.68 384l327.68 327.68c20.48 20.48 20.48 51.2 0 71.68s-51.2 20.48-71.68 0L512 455.68 184.32 783.36c-20.48 20.48-51.2 20.48-71.68 0s-20.48-51.2 0-71.68L440.32 384 112.64 56.32c-20.48-20.48-20.48-51.2 0-71.68 20.48-20.48 51.2-20.48 71.68 0L512 312.32l327.68-327.68c20.48-20.48 51.2-20.48 71.68 0 20.48 20.48 20.48 51.2 0 71.68L583.68 384z"  horiz-adv-x="1024" />

    
    <glyph glyph-name="icon_jiantou1" unicode="&#58916;" d="M131.657143 384l512 512 102.4-102.4L336.457143 384l409.6-409.6L643.657143-128z"  horiz-adv-x="1024" />

    


  </font>
</defs>
</svg>
